<svg xmlns="http://www.w3.org/2000/svg" viewBox="0 0 370 370"><rect fill="#ffffff" width="370" height="370"/><path fill="#000000" d="M20,20h10v10h-10zM30,20h10v10h-10zM40,20h10v10h-10zM50,20h10v10h-10zM60,20h10v10h-10zM70,20h10v10h-10zM80,20h10v10h-10zM100,20h10v10h-10zM130,20h10v10h-10zM150,20h10v10h-10zM170,20h10v10h-10zM200,20h10v10h-10zM250,20h10v10h-10zM280,20h10v10h-10zM290,20h10v10h-10zM300,20h10v10h-10zM310,20h10v10h-10zM320,20h10v10h-10zM330,20h10v10h-10zM340,20h10v10h-10zM20,30h10v10h-10zM80,30h10v10h-10zM150,30h10v10h-10zM160,30h10v10h-10zM200,30h10v10h-10zM210,30h10v10h-10zM220,30h10v10h-10zM280,30h10v10h-10zM340,30h10v10h-10zM20,40h10v10h-10zM40,40h10v10h-10zM50,40h10v10h-10zM60,40h10v10h-10zM80,40h10v10h-10zM110,40h10v10h-10zM140,40h10v10h-10zM160,40h10v10h-10zM180,40h10v10h-10zM190,40h10v10h-10zM200,40h10v10h-10zM210,40h10v10h-10zM230,40h10v10h-10zM250,40h10v10h-10zM260,40h10v10h-10zM280,40h10v10h-10zM300,40h10v10h-10zM310,40h10v10h-10zM320,40h10v10h-10zM340,40h10v10h-10zM20,50h10v10h-10zM40,50h10v10h-10zM50,50h10v10h-10zM60,50h10v10h-10zM80,50h10v10h-10zM100,50h10v10h-10zM110,50h10v10h-10zM140,50h10v10h-10zM170,50h10v10h-10zM180,50h10v10h-10zM190,50h10v10h-10zM230,50h10v10h-10zM240,50h10v10h-10zM250,50h10v10h-10zM280,50h10v10h-10zM300,50h10v10h-10zM310,50h10v10h-10zM320,50h10v10h-10zM340,50h10v10h-10zM20,60h10v10h-10zM40,60h10v10h-10zM50,60h10v10h-10zM60,60h10v10h-10zM80,60h10v10h-10zM100,60h10v10h-10zM140,60h10v10h-10zM180,60h10v10h-10zM190,60h10v10h-10zM210,60h10v10h-10zM230,60h10v10h-10zM240,60h10v10h-10zM280,60h10v10h-10zM300,60h10v10h-10zM310,60h10v10h-10zM320,60h10v10h-10zM340,60h10v10h-10zM20,70h10v10h-10zM80,70h10v10h-10zM100,70h10v10h-10zM120,70h10v10h-10zM130,70h10v10h-10zM150,70h10v10h-10zM160,70h10v10h-10zM170,70h10v10h-10zM190,70h10v10h-10zM220,70h10v10h-10zM250,70h10v10h-10zM260,70h10v10h-10zM280,70h10v10h-10zM340,70h10v10h-10zM20,80h10v10h-10zM30,80h10v10h-10zM40,80h10v10h-10zM50,80h10v10h-10zM60,80h10v10h-10zM70,80h10v10h-10zM80,80h10v10h-10zM100,80h10v10h-10zM120,80h10v10h-10zM140,80h10v10h-10zM160,80h10v10h-10zM180,80h10v10h-10zM200,80h10v10h-10zM220,80h10v10h-10zM240,80h10v10h-10zM260,80h10v10h-10zM280,80h10v10h-10zM290,80h10v10h-10zM300,80h10v10h-10zM310,80h10v10h-10zM320,80h10v10h-10zM330,80h10v10h-10zM340,80h10v10h-10zM100,90h10v10h-10zM110,90h10v10h-10zM130,90h10v10h-10zM160,90h10v10h-10zM190,90h10v10h-10zM200,90h10v10h-10zM210,90h10v10h-10zM220,90h10v10h-10zM230,90h10v10h-10zM260,90h10v10h-10zM20,100h10v10h-10zM60,100h10v10h-10zM80,100h10v10h-10zM90,100h10v10h-10zM100,100h10v10h-10zM160,100h10v10h-10zM170,100h10v10h-10zM190,100h10v10h-10zM230,100h10v10h-10zM240,100h10v10h-10zM250,100h10v10h-10zM270,100h10v10h-10zM280,100h10v10h-10zM290,100h10v10h-10zM300,100h10v10h-10zM310,100h10v10h-10zM340,100h10v10h-10zM20,110h10v10h-10zM40,110h10v10h-10zM50,110h10v10h-10zM70,110h10v10h-10zM90,110h10v10h-10zM100,110h10v10h-10zM120,110h10v10h-10zM140,110h10v10h-10zM170,110h10v10h-10zM180,110h10v10h-10zM190,110h10v10h-10zM230,110h10v10h-10zM240,110h10v10h-10zM250,110h10v10h-10zM270,110h10v10h-10zM310,110h10v10h-10zM320,110h10v10h-10zM330,110h10v10h-10zM20,120h10v10h-10zM40,120h10v10h-10zM70,120h10v10h-10zM80,120h10v10h-10zM90,120h10v10h-10zM110,120h10v10h-10zM120,120h10v10h-10zM140,120h10v10h-10zM150,120h10v10h-10zM160,120h10v10h-10zM170,120h10v10h-10zM180,120h10v10h-10zM200,120h10v10h-10zM250,120h10v10h-10zM260,120h10v10h-10zM280,120h10v10h-10zM310,120h10v10h-10zM330,120h10v10h-10zM20,130h10v10h-10zM60,130h10v10h-10zM120,130h10v10h-10zM140,130h10v10h-10zM150,130h10v10h-10zM210,130h10v10h-10zM220,130h10v10h-10zM240,130h10v10h-10zM250,130h10v10h-10zM270,130h10v10h-10zM340,130h10v10h-10zM20,140h10v10h-10zM30,140h10v10h-10zM60,140h10v10h-10zM80,140h10v10h-10zM90,140h10v10h-10zM100,140h10v10h-10zM110,140h10v10h-10zM120,140h10v10h-10zM140,140h10v10h-10zM150,140h10v10h-10zM180,140h10v10h-10zM210,140h10v10h-10zM240,140h10v10h-10zM260,140h10v10h-10zM270,140h10v10h-10zM280,140h10v10h-10zM290,140h10v10h-10zM300,140h10v10h-10zM310,140h10v10h-10zM20,150h10v10h-10zM40,150h10v10h-10zM50,150h10v10h-10zM60,150h10v10h-10zM70,150h10v10h-10zM110,150h10v10h-10zM120,150h10v10h-10zM130,150h10v10h-10zM140,150h10v10h-10zM150,150h10v10h-10zM160,150h10v10h-10zM190,150h10v10h-10zM200,150h10v10h-10zM210,150h10v10h-10zM220,150h10v10h-10zM260,150h10v10h-10zM270,150h10v10h-10zM290,150h10v10h-10zM310,150h10v10h-10zM320,150h10v10h-10zM20,160h10v10h-10zM30,160h10v10h-10zM40,160h10v10h-10zM50,160h10v10h-10zM60,160h10v10h-10zM70,160h10v10h-10zM80,160h10v10h-10zM90,160h10v10h-10zM110,160h10v10h-10zM130,160h10v10h-10zM140,160h10v10h-10zM150,160h10v10h-10zM160,160h10v10h-10zM170,160h10v10h-10zM190,160h10v10h-10zM220,160h10v10h-10zM230,160h10v10h-10zM250,160h10v10h-10zM270,160h10v10h-10zM280,160h10v10h-10zM290,160h10v10h-10zM330,160h10v10h-10zM40,170h10v10h-10zM50,170h10v10h-10zM60,170h10v10h-10zM90,170h10v10h-10zM100,170h10v10h-10zM110,170h10v10h-10zM130,170h10v10h-10zM170,170h10v10h-10zM180,170h10v10h-10zM190,170h10v10h-10zM200,170h10v10h-10zM230,170h10v10h-10zM240,170h10v10h-10zM250,170h10v10h-10zM270,170h10v10h-10zM280,170h10v10h-10zM300,170h10v10h-10zM20,180h10v10h-10zM40,180h10v10h-10zM80,180h10v10h-10zM90,180h10v10h-10zM140,180h10v10h-10zM150,180h10v10h-10zM160,180h10v10h-10zM190,180h10v10h-10zM210,180h10v10h-10zM220,180h10v10h-10zM230,180h10v10h-10zM240,180h10v10h-10zM280,180h10v10h-10zM300,180h10v10h-10zM310,180h10v10h-10zM330,180h10v10h-10zM20,190h10v10h-10zM50,190h10v10h-10zM60,190h10v10h-10zM100,190h10v10h-10zM110,190h10v10h-10zM120,190h10v10h-10zM150,190h10v10h-10zM160,190h10v10h-10zM170,190h10v10h-10zM180,190h10v10h-10zM200,190h10v10h-10zM250,190h10v10h-10zM310,190h10v10h-10zM320,190h10v10h-10zM330,190h10v10h-10zM20,200h10v10h-10zM40,200h10v10h-10zM70,200h10v10h-10zM80,200h10v10h-10zM90,200h10v10h-10zM100,200h10v10h-10zM110,200h10v10h-10zM120,200h10v10h-10zM130,200h10v10h-10zM150,200h10v10h-10zM160,200h10v10h-10zM170,200h10v10h-10zM190,200h10v10h-10zM220,200h10v10h-10zM230,200h10v10h-10zM240,200h10v10h-10zM250,200h10v10h-10zM260,200h10v10h-10zM270,200h10v10h-10zM280,200h10v10h-10zM290,200h10v10h-10zM310,200h10v10h-10zM330,200h10v10h-10zM20,210h10v10h-10zM30,210h10v10h-10zM40,210h10v10h-10zM60,210h10v10h-10zM90,210h10v10h-10zM100,210h10v10h-10zM130,210h10v10h-10zM140,210h10v10h-10zM170,210h10v10h-10zM190,210h10v10h-10zM200,210h10v10h-10zM220,210h10v10h-10zM230,210h10v10h-10zM250,210h10v10h-10zM280,210h10v10h-10zM290,210h10v10h-10zM340,210h10v10h-10zM50,220h10v10h-10zM80,220h10v10h-10zM90,220h10v10h-10zM100,220h10v10h-10zM110,220h10v10h-10zM130,220h10v10h-10zM140,220h10v10h-10zM150,220h10v10h-10zM160,220h10v10h-10zM200,220h10v10h-10zM220,220h10v10h-10zM250,220h10v10h-10zM280,220h10v10h-10zM300,220h10v10h-10zM310,220h10v10h-10zM20,230h10v10h-10zM40,230h10v10h-10zM100,230h10v10h-10zM120,230h10v10h-10zM130,230h10v10h-10zM150,230h10v10h-10zM160,230h10v10h-10zM180,230h10v10h-10zM190,230h10v10h-10zM210,230h10v10h-10zM230,230h10v10h-10zM240,230h10v10h-10zM250,230h10v10h-10zM270,230h10v10h-10zM290,230h10v10h-10zM310,230h10v10h-10zM320,230h10v10h-10zM330,230h10v10h-10zM80,240h10v10h-10zM100,240h10v10h-10zM110,240h10v10h-10zM140,240h10v10h-10zM150,240h10v10h-10zM180,240h10v10h-10zM200,240h10v10h-10zM210,240h10v10h-10zM250,240h10v10h-10zM270,240h10v10h-10zM300,240h10v10h-10zM310,240h10v10h-10zM330,240h10v10h-10zM50,250h10v10h-10zM60,250h10v10h-10zM70,250h10v10h-10zM90,250h10v10h-10zM100,250h10v10h-10zM110,250h10v10h-10zM120,250h10v10h-10zM140,250h10v10h-10zM160,250h10v10h-10zM190,250h10v10h-10zM200,250h10v10h-10zM210,250h10v10h-10zM220,250h10v10h-10zM230,250h10v10h-10zM250,250h10v10h-10zM270,250h10v10h-10zM290,250h10v10h-10zM330,250h10v10h-10zM340,250h10v10h-10zM20,260h10v10h-10zM30,260h10v10h-10zM40,260h10v10h-10zM50,260h10v10h-10zM60,260h10v10h-10zM80,260h10v10h-10zM120,260h10v10h-10zM170,260h10v10h-10zM190,260h10v10h-10zM200,260h10v10h-10zM220,260h10v10h-10zM230,260h10v10h-10zM240,260h10v10h-10zM260,260h10v10h-10zM270,260h10v10h-10zM280,260h10v10h-10zM290,260h10v10h-10zM300,260h10v10h-10zM330,260h10v10h-10zM100,270h10v10h-10zM110,270h10v10h-10zM150,270h10v10h-10zM170,270h10v10h-10zM180,270h10v10h-10zM190,270h10v10h-10zM200,270h10v10h-10zM220,270h10v10h-10zM230,270h10v10h-10zM240,270h10v10h-10zM260,270h10v10h-10zM300,270h10v10h-10zM320,270h10v10h-10zM330,270h10v10h-10zM20,280h10v10h-10zM30,280h10v10h-10zM40,280h10v10h-10zM50,280h10v10h-10zM60,280h10v10h-10zM70,280h10v10h-10zM80,280h10v10h-10zM100,280h10v10h-10zM170,280h10v10h-10zM200,280h10v10h-10zM220,280h10v10h-10zM260,280h10v10h-10zM280,280h10v10h-10zM300,280h10v10h-10zM310,280h10v10h-10zM20,290h10v10h-10zM80,290h10v10h-10zM110,290h10v10h-10zM120,290h10v10h-10zM130,290h10v10h-10zM140,290h10v10h-10zM210,290h10v10h-10zM240,290h10v10h-10zM260,290h10v10h-10zM300,290h10v10h-10zM330,290h10v10h-10zM20,300h10v10h-10zM40,300h10v10h-10zM50,300h10v10h-10zM60,300h10v10h-10zM80,300h10v10h-10zM100,300h10v10h-10zM110,300h10v10h-10zM120,300h10v10h-10zM130,300h10v10h-10zM140,300h10v10h-10zM160,300h10v10h-10zM180,300h10v10h-10zM210,300h10v10h-10zM240,300h10v10h-10zM260,300h10v10h-10zM270,300h10v10h-10zM280,300h10v10h-10zM290,300h10v10h-10zM300,300h10v10h-10zM310,300h10v10h-10zM330,300h10v10h-10zM340,300h10v10h-10zM20,310h10v10h-10zM40,310h10v10h-10zM50,310h10v10h-10zM60,310h10v10h-10zM80,310h10v10h-10zM110,310h10v10h-10zM150,310h10v10h-10zM160,310h10v10h-10zM190,310h10v10h-10zM200,310h10v10h-10zM210,310h10v10h-10zM220,310h10v10h-10zM280,310h10v10h-10zM290,310h10v10h-10zM300,310h10v10h-10zM310,310h10v10h-10zM330,310h10v10h-10zM20,320h10v10h-10zM40,320h10v10h-10zM50,320h10v10h-10zM60,320h10v10h-10zM80,320h10v10h-10zM120,320h10v10h-10zM130,320h10v10h-10zM160,320h10v10h-10zM170,320h10v10h-10zM190,320h10v10h-10zM200,320h10v10h-10zM220,320h10v10h-10zM230,320h10v10h-10zM250,320h10v10h-10zM280,320h10v10h-10zM290,320h10v10h-10zM300,320h10v10h-10zM310,320h10v10h-10zM20,330h10v10h-10zM80,330h10v10h-10zM120,330h10v10h-10zM130,330h10v10h-10zM150,330h10v10h-10zM160,330h10v10h-10zM170,330h10v10h-10zM180,330h10v10h-10zM190,330h10v10h-10zM200,330h10v10h-10zM230,330h10v10h-10zM260,330h10v10h-10zM20,340h10v10h-10zM30,340h10v10h-10zM40,340h10v10h-10zM50,340h10v10h-10zM60,340h10v10h-10zM70,340h10v10h-10zM80,340h10v10h-10zM100,340h10v10h-10zM110,340h10v10h-10zM120,340h10v10h-10zM150,340h10v10h-10zM160,340h10v10h-10zM180,340h10v10h-10zM190,340h10v10h-10zM200,340h10v10h-10zM210,340h10v10h-10zM230,340h10v10h-10zM240,340h10v10h-10zM250,340h10v10h-10zM260,340h10v10h-10zM280,340h10v10h-10zM340,340h10v10h-10z"/></svg>